<mxfile host="app.diagrams.net" modified="2023-10-30T06:33:02.171Z" agent="Mozilla/5.0 (Windows NT 10.0; Win64; x64) AppleWebKit/537.36 (KHTML, like Gecko) Chrome/118.0.0.0 Safari/537.36" etag="YPiycgs7he-JERbF0PbN" version="21.7.4" type="github">
  <diagram name="Page-1" id="VlVTa-rH8MHXwhE1e4OZ">
    <mxGraphModel dx="1050" dy="556" grid="1" gridSize="10" guides="1" tooltips="1" connect="1" arrows="1" fold="1" page="1" pageScale="1" pageWidth="827" pageHeight="1169" math="0" shadow="0">
      <root>
        <mxCell id="0" />
        <mxCell id="1" parent="0" />
        <mxCell id="90exSIHu08KvO4CoatTS-6" value="" style="rounded=0;whiteSpace=wrap;html=1;dashed=1;" parent="1" vertex="1">
          <mxGeometry x="259" y="111" width="351" height="160" as="geometry" />
        </mxCell>
        <mxCell id="90exSIHu08KvO4CoatTS-5" style="edgeStyle=orthogonalEdgeStyle;rounded=0;orthogonalLoop=1;jettySize=auto;html=1;exitX=1;exitY=0.5;exitDx=0;exitDy=0;" parent="1" source="90exSIHu08KvO4CoatTS-2" target="90exSIHu08KvO4CoatTS-4" edge="1">
          <mxGeometry relative="1" as="geometry" />
        </mxCell>
        <mxCell id="90exSIHu08KvO4CoatTS-2" value="" style="shape=image;verticalLabelPosition=bottom;labelBackgroundColor=default;verticalAlign=top;aspect=fixed;imageAspect=0;image=data:image/png,iVBORw0KGgoAAAANSUhEUgAAAOEAAADhCAYAAAA+s9J6AAAy6ElEQVR4Xu1dB3hVRRZ+ofcqvVdBeougCUWadIGlrRQ7iLqColhQEERdCyJIEZeuAqJEioAC0kRAQoeAFEE6SJdiKMn+/8072eHuS/Ly8lrg3O97X5KXe+fO/DP/nDJnzjgceikCioAioAgoAoqAIqAIKAKKgCKgCCgCioAioAgoAoqAIqAIKAKKgCKgCCgCioAioAgoAoqAIqAIKAKKgCKgCCgCioAioAgoAoqAIqAIKAKKgCKgCCgCioAioAgoAoqAIqAIKAKKgCKgCCgCioAioAgoAoqAIqAIKAKKgCKgCCgCioAioAgoAoqAIqAIKAKKgCKgCCgCioAioAgoAoqAIqAIKAKKgCKgCCgCioAioAgoAoqAIqAIKAKKgCKgCCgCioAioAgoAoqAIqAIKAKKgCKgCCgCioAioAgoAoqAIqAIKAKKgCKgCCgCioAioAgoAoqAIqAIKAKKgCKgCCgCioAioAgoAoqAIqAIKAKKgCKgCCgCioAioAgoAoqAIqAIKAKKgCKgCCgCioAioAgoAoqAIqAIKAKKgCKgCCgCioAioAgoAoqAIqAIKAKKgCKgCCgCioAioAgoAoqAIqAIKAKKgCKgCCgCioAioAgoAoqAIqAIKAKKgCKgCCgCioAioAgoAoqAIqAIKAKKgCKgCCgCioAioAgoAoqAIqAIKAKKgCKgCCgCioAioAjcgQicP3++4JlN8z64dGx3M382H++968jKGe+eO3euiD/fq+/6fwTSKCj+R+DQoUOFp0+f1rfRg603rxqQ6/jNw+seRS1u+LkmaTLePFP80MfljlSpUmXfxx+PeHv79u3V/VwHfZ0i4D8E9u3bV/azz8Y/26hRo014a8xzzz37TWRkZAP/1SDhN6Fu5d99951R+fLlu1S0aNHT+P1N1K1OMNRN66AIpAgBSJZ7MKAHVahQ4TAKin300Ue+Wb58efPo6OiQFBXsw4c3bdpU+/XXXxvB+vLz4osvfLRixYr6qHMGH75Wi1YEvIcAiFd52LChb0GiXOQg7tGjx6wFCxa0TY2DGNKwOkg4UggJ6T0ak0gjtCW99xDTkhQBLyAA6VEDxBucLVs22nWxHTp0+D61Ei8hOEDIaiDhGCFk375PjwMhG6bGycULXa5FBAMCTok3OE+ePNedxAPvFrS+EwYlCFnDJCQlJFTWBiohg2Fk3uZ1oHMFNt7rdF44iTcfxGsDd3/O27zpCTYP5AsHCT81bMgPQdKadyoe2m4fIIB1tJyTJk18wnCuTLtTJF5y4aSEhFNnuBASE9YrWI4pntxy9H5FwEGVcs6cbzu0aNFiGQcUnRMYYLUVGvcRgNZQEmuP/Wknly1b9uh//vP5E5jQcrlfgt55xyFAewYSrhWdKiTem2++MYx23x0HhA8aDGlYdOzYMc+ULFnyTJ06daIQqNCDGoYPXpUqiwza9SpfoMl1OxIsc+bM0bt377773LmzeY4cOVJsw4bI0Dlz5rQHAecPGjRoSM2aNbmg7tcLg7LE8uU/jTtx4kTtDBkyXC1bttys6tWrj86VKxfXGFN0YYLJvGfPnq5RUTt7w34tkCVLlkP16t33BiTUqhQV7MHDIGSxTz4Z+cJHH43oB0Jub9as6YJSpUr9DgfXmZIlS+3LkSPHX6hjbkTx7MyYMeM1D16R6h657UlIOyUiYk6ncePG/+vs2bNZXfVQtWrVdkycOLFX7dq1/U4+1gcELDljxlerMmXKVIx/x8TEOK5du0a1+GrOnDmP1akT+h5+HsR3ua5evVr4+vXr+XFPFtwacunSpeJQ+f7A7zfTpElzJX369H9ikjkJIl/E/Xkw2fQ9evRI5bRp0+a6efOm1fwrV644MPlcfvjh7r0w4XwbiFELMhbp3bv3tEWLFj2Q0PsR3PBtr16PTGjYsOGPgaijv955W5IQ63ZVv/32m27Dh7/zCgboTUiTaAzwLDdu3HBcvnzZgYEci8Ebcu+990YOHPjy8A4dOn7nL8BdvQeOn+0gVWWQyAESOUAy67a///7bcebMGevnXXfdZX0H6WD9BKluKUoIBuLG38ffIfWsMnmxXN534cIFYkDyn/7ww4+KBFLi0Ls6atSol6CJtGEdobJeT5cuXXp8rHqXK1duJ+qZITw8bHFo6L3LmjZt+j3q6+84W58Oj9uKhLA7nurb95nPnJ15GR2ZlcQ7ffq0A6RzQOWhhInt2bPH+HfeefdVkPOCT9F1o3BIhFBMGGsh6axgeiEMf//rr78swrANefPmtYjHD8lqvyg9eZFk/PA++UkiUvrxQ0KzPP7kp1GjB15r3br1u25U1ae30Bk2ceJ/HkP/jUMMq+PPP/+0+ot1xwRq1RXS26oDlkTGjh796TM+rZAfC09VJOSCMOyayuiwjIULFz6aP3+BE8CKMY6OLVs21+jf/4WPsZRwEYMsJ2wri3jsUM76vKCmWZ0LSVkrEHafq35Fm97YvHnT0OzZs1tSDmrkLbf9/vvv1t8ckCZBXZVFIopEFELyJwlJAspFXISEWPNcCtya+nHMJfgqek/LlClzCjekpzpOLFh39hk0Ggfqaj0LFZtEHNe8+YOLsmbNepnfwb7Piz4vzLFRrlz5XWFhYSswyf4VDO1Kqg5BT0Iu/MJe6glD/vnEGoNOuo5O+xudRrsvjRAPHUHbynqUnckLDokjcKFb9legL0wIPVeuXDGVMz6JKBItNtaaW6yLkhyS8ha1MqF6y/P8PyUmJalcJJ5cJOLFixcdoaGhY3r06PlsoHHg+0Gsafv27a8DO7ECJ09OSuw7sy+pprLesO+TrHK3bt3mPvzwwxOhwv4QSJU7qYoGJQlBkFLz589r/8knowYcPHiwEKUAvGYu28JOwXURnZKmXbu2sydPnvKozJjsQJEMnFkpCdmxVGs4YwZDx6AemUaM+OhcgQIFMnHmJ/nEJmTDKP2olpKg5iX3kHR29VSIyO9PnjxpqXMknTwjdufhw4cdb701tHLx4sV3JjVQ/PF/rMtuRD9a0TasN/rekoAiEdl3lOhw1Czeu3dvaUi+8mIju6of7xWyYq13NBxRk6EBbfZHW5LzjqAhIW2CJUuWNB4zZsyLmAkbE3xKMSfJ4ttk/5v/AGkdXOOrWrXqZgyoo/gqhM/zYgeSwByIYguRhFR9cufOHXCbkHWcNWvmYhCtOUlDoojdJ2ShBDNJyHugilvtgzrm2LPnN0eRIkWpksUTTchJSUgpy8Eo7RcwUe5JaBgFkzNgfHkvTIkzqFMe9jEcMpYGIP1IQtFJ5ezrlujrLejrYzLhuhoXrCvbzAvLHtZEhKWPA/379xvevn2Hr9H/QaGuBpyEWLurOHPmjB7wZL5KsAiqK0ATApnPOO0/aUss1E1L6omE4ICkSsMO4YckZBworv2+HFTulo26PAjJv0hsQvGSyvOJSULT8+nqfSQhVVlKFrZdPKROp8y7cMq85m49fXkfSJK9dOnSFzlhsq9ZV5k4pd/4fvYd13tBpl2QnEtgrjThRJTYJUTkPdSOxCzBEsgXWAL5HJLV7+ulZn0Dkt4CUig7w5gw8x0AmFFYw3sVrmm6p90mIDuKHw6m55//10hpFOyAhSbopo3E5Qm5Nm6MvN+Xgyo5ZUNaWxVz5fnkoKE0DwkJsT5ykXymo8b+t/39HNDi9pflDUgZBqIHxQXVuKxIa9OOlX7mT2KBOseUL19+Hyv9yCO9JpJQ5j2uGmNO4JzoONHzM3fuvO4g4Eo8E4s419cwGZYJBBh+JSH2nzUASWZDDbjYr1//z6EegHclE7T37ICYYJNoVE9Q1qEBA156S+6tWrXKDgFdjHpKQXFKODvSsXLlyk6BANzVO/fv39+ag8O+9sd7+T3tWdqKprPGVTmmLcn/s81URV1dJCW8st2CBYOtW7eEm3Uxl1FMSRgeHr4amFgLqV26dJ2JKKe5VFGlf2WMJEVG/p/YCCGhiQ2HZrQP6UfWwjzo4s8taT4nIQN5seH1TThXrqGBK1avXt2BxOPic2IqJkEyAWVHUKenOkIXNUKeFn766egeUE1KgIjnBfS77757h9kB5jtIRs6cdevWhbPjUhjqViMYBuGuXVGPupKCIv1oG/OyS8Ok6k47UhbrSWZRR/kc34fljyrQSgJuE6IOd+3atasDshBY/cs+Eo826yqaDZ1sNWvW2Gi2G4v8D3G3f9OmTWbTLCEhRaImNA5c4UaMScgdO3bUJbmBVzS3aDHwIymcU/p/n9iEnEW+/35BKyyoDgRA94KAsdD1E32XkEVmPdOzReMcM+DPjDOsUaPmesRUbkxoDQjrbs3pPSPRpQNZNuITHRUrVnAUKxa3MnHs2DHH0aPHTqITAzoIsVh/Hxbr18g6IQef6fFzJR3NTjfV7cQkpdhCnMikTKrnrVu36YvJcVxKB1JKnocquBROmMacmCmhuTa6a9dui1CmCUFyIiDjBSzof+zqfWhjup07d1basOHXsBUrVrZYunRpSzxjjTuOIfGOm2MtsXqLMwdmE7StF4d27PgPS4tLSVtdPetVEgK0EpMnT3oKot0y9hNyspgVIelEbeQA4cWdDAhTWl69eo1ILN7uhxcsLlTCjQuDuiTuPyCgs+MQFmZ1LmdSIbczbAsRI43G1q5dZzKWCHZg8P9vIc2Nd3njFkxSH0MS9mP9eJFUJgkp/VxFyNjf7Wp9kffI87I4z+8kbI14AKfNr776mt834XKJCM6iClDFG86e/fVIEoQOFgzyeBWak8XLLw+01HEZG/CC/wPOJLfjXbmDA6QujSCPqmvXrmsQERHxDynLJGZifWk6cyCtZz7//PPvI87Ya0sdKSYhKhgCqdcGUm8ABlQ4FlmvA0yXiYBcEQ7xmzuaNGm8sFatWuurVq22GXr5gZQObmwsXYpB15idxwteN8tDSAcHByO/F+OfZMRgjMH30ah3NAbB1RIlSuzInTvPbszMv+K5PSDoFl+tKWJmP4V65SPxzHU8wcBdEsr99sV683u22/QkUuLAIRKDEL5C0CwYqeLVixoRJr28UDHrwH4vf/Lkidp4Z21IvZxQGWmsZiH5+OHFiUgcSPyb42XPnr3W/5xj5+jIkSMbYJJNkVebOzm2bdtWFTZxnV9+WdsQS2LxqSeTIqZM4tDurr799rAXunX75xcYM3HSw8PLYxIyCn7q1CmPvPHGm2/z3ZB6MRDz8TYmQTNVSt4Dwm0LC7t/OQj3a5UqVbfQy+WLwY3NpItBquYknnmJGuYq+FliLXk/JYTYJE6DnwHg0SDlEZBzX8GCBVdh0O5CPOc22FynPG0D1J0i0BwOguTp+E5vklCkp9kuts1sO5c+Dhw44ICa9U8sYs/wcAxxzbUASYb2lD506I8waB+Vjh49Wg6qJInGODwrokKkvf094lRx9X+pP6NkTp8+c2TKlCmlxTHjaX1dPUffxbZtW2ts3LgxdP36X8OgyoaZ9zFghHURLcW21DHpmWeeHQXpuNWTOiWbhH9uX9bs3Mp3pvceuSz/8qM5HPmyZbyCARSCmS1uOsPFJLKw4VbUqFF9Q6VKlbYjlu83XxHOVaOxK374li1bXqNqY1726Aq7/SWDNKEgaVljMwh6EwPnCkkIUh7JkSPnARB0Zf78+dfDxvsD7z+WWKfAfv3g99/3D+DgowSTaBlz7Y+/m8QxA7PNQG1X70nKnqS9BbJQJd2J+NFENzCDYPlBhOKnTp2qDAdIzVOnTlaCOlkKql02kIgLdVmERAnt8GAdzdA50VTs8bJ2wvIZOlsQL/wjTJ3mngz05D6DPk4PLaEInIAVt2/fVm3btu014VRsDKmexywL2EUDA2try4bXy0UVajb0laINus1PzvuSRcIj235udn5C2A/nMbeFIT0sVMcT9erVW3nPPRW3wSsZhU2ZB+AAORjoSBRI6SrvvffuBkiujKLqGC5vhlDEYMBwc11mqh/2GdhVKJS5g8EeSE1y2gmKsvmeG5CUl0HQE1mzZjuOdx3EZz/KP8lOWr161XiQNYMMWjP4mv9nmSYJEyOV/VmZUBIbDCQBvZF0UkEavgHJvh+DLw8kZBkQtBSIVhlqe25IuowonwPNMjOkHiYOIsWlHibZzDoI8eQ73h+3hBTNKHtKTUujyp49G14Tt12LNtyFCxcdjz32WF/YgwF1InGNmxvB//jjjxJ79+4pD7W2emTkxlAGEHzWyXG9RX4Enzf+uHfZDv0nuEvEZJHQAuTY7grp85Y6iF9v+kItcLfiSd2H9BSRsD1qnTt33gpZwnVl+PDhD8NLewIz7xUM/rNQxeqPHj3qS8ywVKnoFLiBjr+MgZEFZEkv5EwoPtFUb80oF1lUF8lmEtTcSkSPLd/BwSyD1ySTSGqZABJrc0pIyEHO9gvBKJlYL77X1YRjvishskldSToh2o0bN2PTpUt7AdhegWpZOFOmjIh2Oul48sknBmJL1USQ/y7cnxmkzDlu3NixBw4cvEcmUXx38bvvvqPtHJS77dFXaVC3GPCjULbCFY4nNT7N/1u6enIuvGB3cu4P1L3o1NHTpk39N1SnvG3btpkOt3ZvF5PGV1AJs3799awhWDfM8MorrzaG0b+Na2fw2jWHfdMMM14oVLbiGJAZOCBMYtqJIwPSlFgSycL1OlnvMz2VdtuNBDaXGiSWVFTPhPC0S1O71DQ3C7sqQ9rG9plSje9Nimh2SWeQ7u/8+fPtrVix4lqk61gDB1kk8I2iZxTxm0tAwBIdO3b4Epuq33eWccYoqxIWzV+dMmXq6/gua/364fOClYCsMwnIn8klIJ9JtiQMFKk8eS9UhPqwRdemVGI73elV4NlrdfjwIdoFlSE9cosnz12JKW0gQSghxBtoJ5CZhoLkScjWSg4mriSaqKOyvzA55fFeU8rhzxgQ+TwCr9fBB7Aaa2vLsCa73RvLPuxHhDcGNL4zudgk5/7bmoTJASK59zJhEgz3MEjKxpCY9SFxy9JucpeYfJ+dhPxOdsbzd3ovRTWkxEzK0eKqDSIBXW0IpprOwO6kSCh2nEg4vgeEuwibex/Itqp8+buXYz13HdR5ry9zJLdfUuP9yVZHU2MjfVFnqJZ0rnDROH7hGA6hWvAeVgcpG//222/NMbi5RpLWTkypj+kQErKQaOIpNevtioBJqZhJ/d+OCx0kplSWzbScG+CiPwGtYo2TcD9jWWVPMKuHvuhzX5WZIhI6nTTsjLgEJ3f4BXuHcY38TCQUTjd3GCRmA0TFdIJtWYpChOSjV1akk0gaIQ2lnmlv2sPR7LsnBHZ7ADe/T4yI4iSS54V08FTeKFeu7A6EBy6EarkKauUmTDpxaQn0ugUBBiTEnt1fMCRPmWPggUcJqDxSR0G+qhcmVNi6EcFkH69wxJQMf2R2z569xiEEjNtC9EoAAXRYFsQ2dlq3bu1LWNy+B/Gt8MOEWGFaJBDX7UQ6koRURymZ+H9zLS2pXDOytGGS03yG7+F7SX6uE5KMXAzHO/5ALOm7NWrU+BakC5ptTsE4oLgjaMKECc9vXzGj/XNY1q+HxZvSH+4uDcdMsiO+PCIhQUEMX6/WHR+fUq1CwZNQn0LohcRC9RGkEHyjU6fOjEKPy9unl0sE4Gx4Yv36dROg5oVkyBCXxvDatWiLiLI0QRLyYnC3kDApArp6mZBSvJwIKgDpLlj2IL/jDvb7779/EryUj2t3JYwANRsE23caOnTYv+GcKwqbmGub6ZCGI/0XX0x/pnv3HmM9wc/jrUxYNJ264NuJLTGjp8Ps/TfW2tJCjSoxaNAbk7FwfxJHQ/fx554sTxofqGeASyYs1A+EhIufBBnTSTIiLM4KjRICmnX0hIB8ns8xhFAcQUyDQfLJ+iffjZm9LYMcAoVJML+X4xjjuS9CMy8//3y/L1HXwvj9GoIKrpKA2CDwmKcEZLs9loQCGtbZ7u/evfsCRFvkMoFEpMVNRKlEDxky+IUnnnjSygWqVxwCiG3dDKdNdYT0WX+vWbPGIkiTJnGZB+PCyY5YxCFRuL7oauHcXTxZHslNSStSEaTDVqH92JdZ2yLp8ePHsWB//jhiM4vhnXGpuvXiDpwnBw58ZQwwSS/5bggLxvZVxJtmRojkQ9Ag5qYEKo8lobwUe/fWIAr9PpDuln1WCJ5OC2Jmefvt4ePhxj7O48RSUtHb5VmqNJBC+dkeSj4ScOnSZY5Dhw47YGPEp7Bg4ia5KLXMAO/kYkFJJwRE+Jxj9uxvHEuWLHUgP4sDuwiszdN0yuBnbjiRgmKjc3Lb6O37edIy1iaPvfnm4M9gZqU345DZHyQgBFBYSgnIeqeYhCyESXc2b95cHLP5bnNHNP/HnQyYRQr26dNnPhw3m+70k46ctnIIJRKJsWnTZsfWrVuxZWcPsg3kxYbW/dZ2I34k+zQlISUlCUTievIRIlPCcgsT+4V7LZmlIC4J1k3O7ulhe8Ylab1DL+aZQQKpXx599FFKt0Ign6UtiueZa6qwoW/gvtIUQN6AySskZEUYtL1q1apq8KzNl716XO+S/W1M447K12jQoME25IAcc6eebovZ8yV0ZCGGiZEYVDOZHY57HnnxO6qP/EhqCiGdkDOxn+agkPukXEpT7kZguXwftpZZ6fX5vXO/XtoFC+YP88bASm1l0O5DvPH7WJbZh5jieownlosEJD5YAyZee+CUucsb+16l/BTbhK7ARrqCQR988OEwppIwE9FKLkwOMAy2q+PHj+8EBw/PA7ztL0w6hWA/TMcSRWNZj8P+MzhEVjgWL17sgMpj5drs3v3heCwoqSR9fUIJm+Rme+A3v6c9Kc4YliMZuWfOnGWRnZMlFt0d2ONpSWTeW7BgAW4Ziurdu083xtHe9h2DBmJibARNbQ6IlksCxu0EZKoN7KqfMX369H96GxOfkJCVhOHfsHPnzkug9qQzc4BKA0hIrlF17dpl+tix43p6u2HBUh48jvXWrv3ldZCvARwg2WQ98NSpP5HAN5+VAmTevPkWAZDEyIENz9auD/6NDaZWMyT3SmJtSizI2r5VC9mrUXbcKXAigUn4YsWKxme8xkQRg0lhS4MGDT9MyYbfYOmHhOoB6ffhiBEfv8gdLWYaEY5PkYAkILyjT2Fi+twX7fEZCVlZnsaKfDE/bNiw4V4ONnrhpKGy7sXBg9l456RJk1ph5v3DF430d5kgXjj2mfXBfrMm5BA+ltpPe4IEi8tvc95yiJB4lHKUZCSLZMymjUiiYl9dfPoHlsF7EiOcfb+e4CwSUWwb5xFxFjRMqsT/0/bMnZuf3PFpJpzpP87Cuba5UqXKX8CjyzVgv+fi8XYfUv1E+s3lUVFR90l2c8FOCCjZ/eDHqAC/x2/eroOU51MSykuQ8+UdZthGR8a3g6oSB4iQEgvH1ydPntwSzpulvmqsr8rluh+8ik3h5HgccaN1YefdhQknrRz2SWJJkLQkLUJomFUdhIdZJBNycdDv2LGTuV+stUJuupXERLThSEBJtUDiynFndIjJxmW60mm/yDkMtDlpGpBcVDdldz7fRac2o2WY+TpOfc1olS+kZVlmSgfU5VyRIkWikA9oMspd4Iyh9RW0PikXpKreqVOnFSBfTo4/6Se79GPCsRkzZnTwdYysX0hIJOHybQ77bzEloqhHlATsYBlUGHAxvXs/NRipFqy8NcF8QaKVhJex48GDB7ri9zJoU0580oi6SeKRME5JEp9gythJbkXGVK4ct1YoMZ5ffz3b8ljKmpSZGQw7FaxnzNw5fAe/4338yfJJKEn3z7JZlpTDvzG4bpkMnZueLUlIEkryJdnYK5OEpGWUkDcuS6H/jt9zT6VvoNYugCazLpj7jHXDHsXur78+6HNMShkxgYVwEjMC1a3qU/1EAq6+PCvRH+3xGwnZGKhphZGiYCaS6IRzdjYT80qCV4Bz/PPPP2+I/+/xBwDJeQfPlcdm34dxAMtj6LzCGJSZSR56Ly9fjlM12alyApI91YOoobjv+n331dsdFbWrCiWhScJFixY7oL7H22YizUgkJi1mmbJmJZnF+T5KTQnI5v/5N081EhLyJ+9jOW3aWIfixl+sN1KUHMRO9lz4MlfOnDni3y8TprkTRI5xk//xeRCSov0UA75xWMtYEPKX5GDrj3tRzxzt27dfA5u4spl7VH5n+B7sb+aibQ472KOkTZ60w68klAp+9dWXXZ999rkpUM0y0isoCXmxA34uvHQ14LD4BbbHisceezzgkTaYOBpB4nXFZt4WkHJ54fbPYiZi4mA3CSCpLNhWsd2c5LtWuHCh35jGAefljYcEiUbkzByU3RakiT/7+ocffnSsX7/eJQmRPMtSMaEOWlAKCUl8kby09ehe59+uSEito1WrVrecVoSBFwWvnyWS4Sns8tNPy7rv3buvHuzDvGY2AYna4aAVAlIqcylEJDnfj3czheQpSMcttWrVHoEJdYkng9Obz6Bd9aGC8pzCTJyI2DesO49SkBOA0R/9oYWN9OZ73SkrICSUisGD2mT58p/aRUR89yxd5TKYZQDh1JyZOG/Q7+cl8JQkqIRPY2G7LgZXPgyyECEeO4/1FFtMVBl73hV+j5QZ0aVKldyAs9ZnI0D6S5DNTN9gwYColfYREXM+QLlUaa0IFoaUkSy8zMMwYS9b35mSkKSX+ggpOcg4uOT0IVO15eGbTZo0kZSOh7Ek8h6iPv4v8JiRPWvXru0Az24nOIkaoIzcUHOt5EtmDKuUTbPC3PEhaTGchDyOiXYv1NYpmFy/8ndwv5NcI5iVXWxvjjd452Mw8U8FHgseeKDxUqjjXs+uHfQkNCoYS1uRMzyNYw50GsyMJIH9suytt97qB++UdcaEc49eMczep70FGsrMioH2D3gze2E3SBV0FCVePPE4u3Ogi+1lzywmUg8k4M6Rk5UrV15K4qHOS9016mEzD8aAHwgSZiYJxY6z23P8m7abDH5xxnBSMDNV2ztfyiHOkKjHcXDOQmTefsKdQULMgc/9SC/fAUstjfCesiAkYMrkoJ1KbEhM9hvtRqp1EmggdiXrxvtAyrPcIHz33RUiqlWrNoEH+rhTB3fugdZSCPW6JEck8LBZJIzqhzMY/4V3xafU5yRGLQGTVCwjZLy58O5OPe33BFQSsjJMUw774TBnfnYU12uY+Uu281D1Yadi8FyA+nAeM3weECU77RsM1vqQDqs9aTjTU6ADOsC+e5JOFgyW3C7Uqng7KxHi/YVO3Qc7aBFUrwh0aKQn9eEzODhn2cqVqx6Azfx/zhT+3wwgtr/DdLy4er+NhJuGDRvWA3WN8qSu6LNKWIJpg3ycrdA3VdE3OYR0ghMleIlrpx0XsxdwhGTNGb8nUtRWpxp/AZPU6YoV7/kWZJ6DcbDew/oUgar5PdT4anweXnim2QiBNgPBf+ux21xzFTUd98TycFk4DBd58l5vPRNQEqIzS8FRsxgzUnlnFI2lLtAOkWh/+Wke+MnG83t6ETFw30IW8CHuAAJyF4d07blv396uGATFQersQjzO4pQmdvuO5ZoOFmdyo3NQrzbWrVtvBsKc5oOEXtl1Pn36tMGTJk0eYkpCIZ84VVy1U/6XFBH5rFMSrsZuiUbe2C2BCSwPEi13w1kPbahFoO9yQzpn5uQpJDwXHbcGyotklU3KQkhiynhM/PtPOHaWYEKbAEK6FZcJrMI4EZted1cYieNP1kfl7Assz0Rj0qsXyGO0A0pC2Hw/YobODLsvjAOI0pAdZJ/xE9tHxzTu8PYtxXpO3D4g28W8L5i1e2H9riWka0GoS1n5Dsl4RuKZHk153Ea8WHx/BirN9zVr1poNu2aJu2qmO5OD3IMB1XHo0KEz8dNKO2LiQBVUVM7klGknJgcr7KBZiFLqmpxy3L0Xa3BNSEiorc2KXDxc4Qak4NlMeW/xhNsJaZ6PQZKAkEyXchJngvwMUs6EWj/H1ftNW89+zB7/FuKZh8ZyTdSV2o6xkc4bk5K7OJn3pSjHjCcvNJ+BF+/M778f6IS1QcfPP8dNfLLuJfcJAe2SUP5P9RUOhCZYyD6OGMxKkEpnoWaG4lyBTki21AU7ofOBdJm4dsYyWL7TpX7LeX0uHCtXUNZBOFTmYGF6HlS3DSltb1LPQ7ruxuRwFvflNwmIvJ3xKro9ttEsU9ogkR8kLgMiqBqatiXC0XzmfqcdjDpZAReYAO/BBNjh4vZtLUCsCiBbHglcl77mxCI2pEhIkI8RRoVAyE7Y/NwRscgnMHmshNo6C+UvpmcZmwDGwpP5NJe6bhnQIJ9crogo2BAPYsPJGDG86wJFQNY1oJIQ+nhP2CZTSQwzWkFmNTPMzQTaPHlIvnfG+d3s0qXzAuj9BdChZfDJx//zfxKwbB6Uyf+ZEo9ZnjFA1+BItjlQM+d6S81MinzyfzpAsHywC+pRGWoFJA+jZNhe2slsQ1IHq8qsT5uaEoaOEkgn6xVC7Pnz5z8AFW65u/Xyxn1OtRUT4+4HQc57MfgLoH/TmO0RCSmB52Iq8P0g5HmYCgfh2Nnz449LQnGYZ0n7gT8JYSNnXgo2cvgsywfON3Du5Rg4qfp5o52elBFQSQgpsxAgnMFgy8sBJlLPLv3sDXMlFZ3PpJ06dVo7zJI8LSnW6Y2zHjfJJ8SDahKD2fAoUvmthFOF3syFnmbM8gR8+zN03cMbTO9hGTMGlL9z4JjS0a6im5nWTPXLHrxN9RROEJ/FQSaEA6QyJTzXfT/DBJEW3tZGcOy0h13fGP1RFPXMasbEchLhUpVByMxYUz6G/u3M3DiJEdCV+UL8pHziYwQh3IBtH9DEwgElIYjyFyI19m/dui0vZ3txdZNkrk7qsQcn2zuc4NP9DJd0Vdg9VhCAkE/WrVDGDaimB2H8R5B4/lAzk0NQrNuNRsTGNFeeUEo1dw8M5RqhKRlEHe3b9+nP4PRI9LSo5NTXk3udqp+ptlaF2toaS0RUWytDI7llS5GTkJfGjBnbku9LTBuwE5B4kciiPYlU5HcMaihbtsx5jJPfPWmHt54JKAmp20PfP03ghGCc0QsVKhS/j44NFQBJTJOIEnxrB4NEXLhwEdfDGI61BapQJqiofyCHSwSkwBoMwlvOtfcWmN4oByFw1g4FttVORP6dVK4ZidiRA17sExfU7YAOOFcYOfctcu/iOzzrEB7sFlBb74PaWtupxaSdOHFS1YTIZ35v96YLlsSBkxgnet5PfJ32dSw26h71Rt95WkZASchKQy24QgcCjXPZCeA8i85SH2QzqklGs7EJEZGA4zw5SsJMcMfXBOGZni7oL0QQdTQjO6iSsS1UnypWrJBoKnzRHsT7xwFHbyPXymj/cI3sk09GDQcIcgBL0OGBCZSZzac4P0y0NAiJlobZ1U+puJ2Y4kewa1JiY1MdJ5YiIfm3v21/O+gBJyHIcQreTQsYcaeTfDwzj4OR4MuWHXNWSwYRK7z22quTcb9PXPLeHsUkC858tIqlF1dSYBCDDRsib9EEXL1bBp8MMt7DaBF6h3lB0pw0Fqu9XX2vlscd78jjMszuAeVLXElFUxXlRCTaBCdyOHKsWFt+J3mQaFvC8xxQ5yTb4rUcM56ij/CuuZSC3P/Gi4Bx8NGm4W4C/ixZsoQV0kZgk7IL7fWgajpt2vQusIUWeFpHfz6HgRQSt7E2l3NrUdz5hVwPjU6bxpEeOxz4oYouYWMcWEI+pi7khzhSAlKKkoDcR8gPngn4oHMHT6yVkoA/uSKgq+dNAkoQO9M5EgcGxHMccZKnlkUyIrDAipyBZ3S6O/Xx5T0Bl4Q88mrUqE/mIZi2rew6lwabm11pRFMdY2pA7jp3HvMcv+E0oXVElsWdGkgh0QJEnI9F6lv38fgSXc/KDpFd9zJji1ePRMuHjGu8zkbH2TgcUNJ2Cfpm8DYvSk/+zxlMDulhbdaI37HhWfV8/xQI2BhLKEvclYCsEW1gTkp16tRxIC7W+p2TO/PnhIbWcW6qjo6XgnTMILvdkfDw+j/6vkWJvyHgJMQAyQ67pzxVT1nP4yBiWj7sQoA0yGnN8jIQ+XetWjW3vvfee0NhPzUZN2784wA0g7kD3FWTIRHTIN/mgyDijyBis0ADn9D70c4MnLUlIFru46CiFoD53PqZF1E/tPkkeRbv40wvR6lZbHOe8GTuxGD5wdp21gsqaAtIwIUgIPcnxp0P4Lzs+085JrgNCSkKo3Da73hE6bTDrY15u4wXsY9lgjLLw9jLjb8Drg0GvAI87QdA8hzweC8ogcKGVwf2uMXbiQSTMzoG2jGcqNsVM+UcnAnQF89lxn3N6tWrG8FdF1Qz7DulURzDoE5lylkgXavs45qemvtawFWQREiYjrYKZ3F+xE6m1Dt75KgjexaetoYYuqtX4neciAOLPzkZyTqhEJnOHZZFMkI9u2VgBxMhecpXunkNFzYPLX3KXOuUOrJ9nKAZM4xJdS9s/RfhQS2G5NOVsB1r9MsvD6SWs5uYSToRagNMdowF/ltMGY4nnBScIX/+/Mk+wMXbmAVcErJBIOLWqG3ri9QMbWCpl5zxOOioWlAlNc/Nw+lPg+HSjj+yG/eTYNw0ugTqWxo4eeovWfJjO6ifXRApUoi7LyBFrkdDQcma7oajec0sjqsH3+n+5/ZlX+Sr0vgHbwPqhfKuUcKJVsDySCx+OFEVLM3T1XB4zPkL3APvTNwbdyLXXcWLWYOPA9hcTzTjR4FX0KqjsbMr7KhWwuFoevJ6uh/2ZMhYNBsy8URHx0AzyML2MWlYy5YtIpo1az6fa530GSAFRTzk9IAjZLEvjklfhi8t25faADMJ0NQhIZ0B+LCxDzryZbtyEeXs9UKfpaiIoCBhr16P9B/04rJwqKDZafuRdNWqVY0bbJixeFHNwvfXsM6X4FYhJyFX4HZ++mOWzIdF4LqbN2+qH3P01zqvN/qpwemzlc+kDx/0bJASkLbMRXvgsSRmokq1G/lB5boEiUDnCwcX7zmN/8nuAIkIETJKmfA2X0rRiPHhwyGddleJXjn43d6hs9oVyFb2zMKL4dvDw8MWwXm3FL6DrVzkRyBDojXAwjtjfK8ChywSGYWMBliYLySalJVtPO21447Ovd4eOG124E/zCwoSYjbag5QXH3418YMhOXK0jMWASkNXvYBohF5liIzc0AUgb3FnLKBcbjGa7/w4Bo/nU7/i09adxwNyDyaZjZB4vZxrezGQimm4C5wko5dTMqOxcnQ4kVwSqMxs2uIllDMPcVs0pEBG2YWBSCG/h6y5CyTO9tuFex9i9roeVlrFfQ7sjnH3ces+OO0eJAFlzMgEJjYiJ6n9kT84qt/f7HvsI7QOcw30FVTuakiu8liquBfbjjpjj1prM5cLgSIpMQj/HD36U+tAldvxcsZV8oiyNBgwVyD9s2DP5S+QYBllryPbbS7Mm3/LThFKTdh/13FeZB/sAlmDcrLyPqjnB2BPnbsdsWObsLgfCRu4lrSP5KM6Tu8pMh5EIMVGBDDYBMfPzmDBICgkoYBBicjJDJ/p2GExDQG+PexAgYj5uFUJIFKk3XaXM65yi9kw5EA5j78L0BNKJwtnef5kIAPTS1B937WLQiTuEikAEqZH7pQISMHblnQmTpjAsr3//r+rUCPgZS7xYOLZDPvxf7keg2jkBNw7mhAWUBV6YpDt5ICSrScSoL1s2dL+QYShz6sC+/gXCUCnl1OCkCntOMNT1aT6Kt9LhRCmduFOISDbDEfcw3Bg3bIEwwnq2LHj0QMGvBS0y1JBS0KCivPTH4Eq8be5HYe/M8CXacx9PvqD5AXY8rUAUi3WvoOCWbpp89DzxygZwUmcMMhtujhImuCXamzcGPkyvevmxUnqoYfafQhJeNovlfDgJUFNQqinkdjrZyXhEYnI32Er5cSsd8ccOgqbbh1UUabYiF//kv1xXDPjpl17LCVJW6/efakiVM+Dcft/j8CfUAdtLs1JSa64sz8u/NWlS9dB3niHr8oIahKy0c2bP/gcwDxvAkDPKdIe/MtXoARbucyKBtXyN3HGUPJRLZX8OJIigoEKvJyE/AsSNKBZxPyJI5ainqAUFI867UFGXT3++ONBP06CnoSwaY7WqFFziikNaRsC4FCoGgX92dGBfNfAgQP7ob1XRBpKMDKjYPiRKBESlMHwyNvzpqtkw4Fsgy/fjQ3B7SgFRRI6E4cdQAicNXaC+QqqJYqEgOK60YgRH+2DSlpEzlvgT6hbQ+DAeSuYAfZm3UCwnDiWvBZ2CWTFUdsZsQE4LpIBF/7OhL8Zb5kGa4Gbbpdj5tzBD+p456VLl8ySg1SpGUAyOnDwS52U5IF1593euCeoligSahDUjL+RLv5VhKNNo21IAvLnr7+ufxLP3DEkhFaAWDXHT97o+NupDKRYfMx0yNAZA1/CitRAQPZD0KujMliQlm46iPe/xTD8AxKhCNYM695OA0rbkjwEoCVlwQZwZm+zHqQURFzojT59nu6cvJICd3eqISEhatOmbR9IwRviKaWDBmuGAwIHn7450AggYL8/pGAuqQelIDbqTgx0york4JKqSAj1YhUWqOPPK6CDBrGCXDOMy7Gu1x2HAFTRR8UhQ88opODNzp279EtNQKQqEhLYFi1acsnikpE3Mgtmw56pCXStq3cQYDY2TMAlRBVltoUuXboMoQ/BO2/wTympjoTw+m2G0R0h8LADsGbY2z9w6VuCCQF4QLHZImM6RhJxyxtU0dPwlgf9Uet2DFMdCdkALOAPgDA8gkXpWDhnruOAloXBNDi0Lv5BAGdWrIQkPItoojPMpoaTnZ/yz5v1LRYCUEWq4VSeNVi64P5Cve5QBHiuxdixY1YjOdT/ttjfoVhosxUBRUARUAQUAUVAEVAEFAFFQBFQBBQBRUARUAQUAUVAEVAEFAFFQBFQBBQBRUARUAQUAUVAEVAEFAFFQBFQBBQBRUARUAQUAUVAEVAEFAFFQBFQBBQBRUARUAQUAUVAEVAEFAFFQBFQBBQBRUARUAQUAUVAEVAEFAFFQBFQBBQBRUARUAQUAUVAEVAEFAFFQBFQBBQBRUARUAQUAUVAEVAEFAFFQBFQBBQBRUARUAQUAUVAEVAEFAFFQBFQBBQBRUARUAQUAUVAEVAEFAFFQBFQBBQBRUARUAQUAUVAEVAEFAFFQBFQBBQBRUARUAQUAUVAEVAEFAFFQBFQBBQBRUARUAQUAUVAEVAEFAFFQBFQBBQBRUARUAQUAUVAEVAEFAFFQBFQBBQBRUARUAQUAUVAEVAEFAFFQBFQBBQBRUARUAQUAUVAEVAEFAFFQBFQBBQBRUARUAQUAUVAEVAEFAFFQBFQBBQBRUARUAQUAUVAEVAEFAFFQBFQBBQBRUARUAQUAUVAEVAEFAFFQBFQBBQBRUARUAQUAUVAEVAEFAFFQBFQBBQBRUARUAQUAUUgVSHwX7CS+EgiCVVDAAAAAElFTkSuQmCC;" parent="1" vertex="1">
          <mxGeometry x="40" y="141" width="100" height="100" as="geometry" />
        </mxCell>
        <mxCell id="90exSIHu08KvO4CoatTS-7" style="edgeStyle=orthogonalEdgeStyle;rounded=0;orthogonalLoop=1;jettySize=auto;html=1;exitX=1;exitY=0.5;exitDx=0;exitDy=0;entryX=0;entryY=0.5;entryDx=0;entryDy=0;" parent="1" source="90exSIHu08KvO4CoatTS-4" target="90exSIHu08KvO4CoatTS-8" edge="1">
          <mxGeometry relative="1" as="geometry" />
        </mxCell>
        <mxCell id="90exSIHu08KvO4CoatTS-4" value="4G模块" style="rounded=0;whiteSpace=wrap;html=1;" parent="1" vertex="1">
          <mxGeometry x="180" y="174.5" width="60" height="33" as="geometry" />
        </mxCell>
        <mxCell id="90exSIHu08KvO4CoatTS-11" style="edgeStyle=orthogonalEdgeStyle;rounded=0;orthogonalLoop=1;jettySize=auto;html=1;exitX=1;exitY=0.5;exitDx=0;exitDy=0;entryX=0;entryY=0.5;entryDx=0;entryDy=0;" parent="1" source="90exSIHu08KvO4CoatTS-8" target="90exSIHu08KvO4CoatTS-10" edge="1">
          <mxGeometry relative="1" as="geometry" />
        </mxCell>
        <mxCell id="90exSIHu08KvO4CoatTS-12" style="edgeStyle=orthogonalEdgeStyle;rounded=0;orthogonalLoop=1;jettySize=auto;html=1;exitX=1;exitY=0.5;exitDx=0;exitDy=0;entryX=0;entryY=0.5;entryDx=0;entryDy=0;" parent="1" source="90exSIHu08KvO4CoatTS-8" target="90exSIHu08KvO4CoatTS-9" edge="1">
          <mxGeometry relative="1" as="geometry" />
        </mxCell>
        <mxCell id="90exSIHu08KvO4CoatTS-8" value="图像分块" style="rounded=0;whiteSpace=wrap;html=1;" parent="1" vertex="1">
          <mxGeometry x="281" y="174.5" width="60" height="33" as="geometry" />
        </mxCell>
        <mxCell id="90exSIHu08KvO4CoatTS-14" style="edgeStyle=orthogonalEdgeStyle;rounded=0;orthogonalLoop=1;jettySize=auto;html=1;exitX=1;exitY=0.5;exitDx=0;exitDy=0;entryX=0;entryY=0.5;entryDx=0;entryDy=0;" parent="1" source="90exSIHu08KvO4CoatTS-9" target="90exSIHu08KvO4CoatTS-13" edge="1">
          <mxGeometry relative="1" as="geometry" />
        </mxCell>
        <mxCell id="90exSIHu08KvO4CoatTS-9" value="区域信息识别" style="rounded=0;whiteSpace=wrap;html=1;" parent="1" vertex="1">
          <mxGeometry x="411" y="133" width="76" height="33" as="geometry" />
        </mxCell>
        <mxCell id="90exSIHu08KvO4CoatTS-15" style="edgeStyle=orthogonalEdgeStyle;rounded=0;orthogonalLoop=1;jettySize=auto;html=1;exitX=1;exitY=0.5;exitDx=0;exitDy=0;entryX=0;entryY=0.5;entryDx=0;entryDy=0;" parent="1" source="90exSIHu08KvO4CoatTS-10" target="90exSIHu08KvO4CoatTS-13" edge="1">
          <mxGeometry relative="1" as="geometry" />
        </mxCell>
        <mxCell id="90exSIHu08KvO4CoatTS-10" value="罂粟识别" style="rounded=0;whiteSpace=wrap;html=1;" parent="1" vertex="1">
          <mxGeometry x="411" y="216" width="76" height="33" as="geometry" />
        </mxCell>
        <mxCell id="90exSIHu08KvO4CoatTS-13" value="报告生成" style="rounded=0;whiteSpace=wrap;html=1;" parent="1" vertex="1">
          <mxGeometry x="534" y="174.5" width="60" height="33" as="geometry" />
        </mxCell>
        <mxCell id="90exSIHu08KvO4CoatTS-16" value="服务器" style="text;html=1;strokeColor=none;fillColor=none;align=center;verticalAlign=middle;whiteSpace=wrap;rounded=0;" parent="1" vertex="1">
          <mxGeometry x="270" y="111" width="60" height="30" as="geometry" />
        </mxCell>
      </root>
    </mxGraphModel>
  </diagram>
</mxfile>
